<?xml version="1.0" encoding="utf-8"?>
<svg version="1.1" xmlns:xlink="http://www.w3.org/1999/xlink" width="36px" height="26px" xmlns="http://www.w3.org/2000/svg">
  <defs>
    <path d="M 0 0  L 1024 0  L 1024 1024  L 0 1024  Z " fill-rule="evenodd" fill="black" id="path38" />
    <clipPath id="clip39">
      <use xlink:href="#path38" />
    </clipPath>
    <filter x="-50.00%" y="-50.00%" width="200.00%" height="200.00%" filterUnits="objectBoundingBox" id="filter40">
      <feColorMatrix type="matrix" values="1 0 0 0 0  0 1 0 0 0  0 0 1 0 0  0 0 0 1 0  " in="SourceGraphic" />
    </filter>
  </defs>
  <g transform="matrix(1 0 0 1 -1174 -730 )">
    <g transform="matrix(0.025390625 0 0 0.025390625 1179 730 )" clip-path="url(#clip39)" filter="url(#filter40)">
      <path d="M224.089812 799.750078H192.099809a187.781318 187.781318 0 0 1-191.940019-191.940019 187.781318 187.781318 0 0 1 191.940019-191.940018h31.990003z m-63.980006-316.381131A122.841612 122.841612 0 0 0 64.139796 607.810059a122.841612 122.841612 0 0 0 95.97001 124.441113zM831.899871 799.750078h-31.990003V415.870041h31.990003a187.781318 187.781318 0 0 1 191.940019 191.940018 187.781318 187.781318 0 0 1-191.940019 191.940019z m31.990003-316.381131v248.882225A122.841612 122.841612 0 0 0 959.859884 607.810059a122.841612 122.841612 0 0 0-95.97001-124.441112zM863.889874 959.700094v-63.980007a31.990003 31.990003 0 0 0 31.990004-31.990003h63.980006a93.730709 93.730709 0 0 1-95.97001 95.97001zM735.929862 895.720087h127.960012v63.980007h-127.960012z" fill="#bfbfbf" p-id="4991"></path>
      <path d="M656.914554 1023.6801a95.970009 95.970009 0 1 1 95.97001-95.970009 95.970009 95.970009 0 0 1-95.97001 95.970009z m0-127.960013a31.990003 31.990003 0 1 0 31.990003 31.990004 31.990003 31.990003 0 0 0-31.990003-31.990004zM863.889874 351.890034h-63.980006a287.910028 287.910028 0 1 0-575.820056 0H160.109806a351.890034 351.890034 0 1 1 703.780068 0z" fill="#bfbfbf" p-id="4992"></path>
    </g>
  </g>
</svg>