<?xml version="1.0" encoding="utf-8"?>
<svg version="1.1" xmlns:xlink="http://www.w3.org/1999/xlink" width="24px" height="24px" xmlns="http://www.w3.org/2000/svg">
  <defs>
    <path d="M 0 0  L 1024 0  L 1024 1024  L 0 1024  Z " fill-rule="evenodd" fill="black" id="path44" />
    <clipPath id="clip45">
      <use xlink:href="#path44" />
    </clipPath>
    <filter x="-50.00%" y="-50.00%" width="200.00%" height="200.00%" filterUnits="objectBoundingBox" id="filter46">
      <feColorMatrix type="matrix" values="1 0 0 0 0  0 1 0 0 0  0 0 1 0 0  0 0 0 1 0  " in="SourceGraphic" />
    </filter>
  </defs>
  <g transform="matrix(1 0 0 1 -928 -306 )">
    <g transform="matrix(0.0234375 0 0 0.0234375 928 306 )" clip-path="url(#clip45)" filter="url(#filter46)">
      <path d="M512 1024c-281.6 0-512-230.4-512-512 0-6.4 6.4-12.8 12.8-12.8S25.6 505.6 25.6 512c0 268.8 217.6 486.4 486.4 486.4s486.4-217.6 486.4-486.4S780.8 25.6 512 25.6c-57.6 0-121.6 12.8-172.8 32-6.4 0-12.8 0-19.2-6.4 0-6.4 0-12.8 6.4-19.2C384 12.8 448 0 512 0c281.6 0 512 230.4 512 512S793.6 1024 512 1024z" p-id="13414" fill="#cdcdcd"></path>
      <path d="M748.8 268.8c-38.4-6.4-134.4-32-224-32L505.6 236.8C416 236.8 320 262.4 281.6 268.8 256 275.2 243.2 294.4 243.2 313.6l0 268.8c0 32 12.8 64 38.4 89.6 19.2 19.2 38.4 32 64 51.2 76.8 57.6 153.6 89.6 160 89.6 0 0 6.4 0 6.4 0s6.4 0 6.4 0c6.4 0 83.2-32 160-89.6 25.6-19.2 44.8-38.4 64-51.2 25.6-19.2 38.4-51.2 38.4-89.6L780.8 313.6C787.2 294.4 768 275.2 748.8 268.8zM736 588.8c0 19.2-6.4 38.4-19.2 51.2-19.2 12.8-38.4 32-57.6 51.2C601.6 729.6 537.6 755.2 512 768c-25.6-12.8-83.2-38.4-140.8-76.8-25.6-19.2-44.8-32-57.6-51.2C300.8 627.2 294.4 608 294.4 588.8l0-268.8c38.4-6.4 134.4-32 211.2-32l19.2 0c83.2 0 172.8 19.2 211.2 25.6L736 588.8z" p-id="13415" fill="#cdcdcd"></path>
      <path d="M486.4 403.2 486.4 505.6 390.4 505.6 390.4 556.8 486.4 556.8 486.4 652.8 537.6 652.8 537.6 556.8 640 556.8 640 505.6 537.6 505.6 537.6 403.2Z" p-id="13416" fill="#cdcdcd"></path>
    </g>
  </g>
</svg>