<?xml version="1.0" encoding="utf-8"?>
<svg version="1.1" xmlns:xlink="http://www.w3.org/1999/xlink" width="134px" height="38px" xmlns="http://www.w3.org/2000/svg">
  <g transform="matrix(1 0 0 1 -196 -2416 )">
    <path d="M 211.2 2416  C 211.2 2416  207.4 2416.53880597015  207.4 2416.53880597015  C 207.4 2416.53880597015  196 2435  196 2435  C 196 2435  207.4 2453.46119402985  207.4 2453.46119402985  C 207.4 2453.46119402985  211.2 2454  211.2 2454  C 211.2 2454  320 2454  320 2454  C 325.6 2454  330 2449.6  330 2444  C 330 2444  330 2426  330 2426  C 330 2420.4  325.6 2416  320 2416  C 320 2416  211.2 2416  211.2 2416  Z " fill-rule="nonzero" fill="#f2f2f2" stroke="none" fill-opacity="0.67843137254902" />
  </g>
</svg>