<?xml version="1.0" encoding="utf-8"?>
<svg version="1.1" xmlns:xlink="http://www.w3.org/1999/xlink" width="131px" height="38px" xmlns="http://www.w3.org/2000/svg">
  <g transform="matrix(1 0 0 1 -1228 -2416 )">
    <path d="M 1243.2 2416  C 1243.2 2416  1239.4 2416.55114503817  1239.4 2416.55114503817  C 1239.4 2416.55114503817  1228 2435  1228 2435  C 1228 2435  1239.4 2453.44885496183  1239.4 2453.44885496183  C 1239.4 2453.44885496183  1243.2 2454  1243.2 2454  C 1243.2 2454  1349 2454  1349 2454  C 1354.6 2454  1359 2449.6  1359 2444  C 1359 2444  1359 2426  1359 2426  C 1359 2420.4  1354.6 2416  1349 2416  C 1349 2416  1243.2 2416  1243.2 2416  Z " fill-rule="nonzero" fill="#f2f2f2" stroke="none" />
  </g>
</svg>